<svg version="1.1" id="Layer_1" xmlns="http://www.w3.org/2000/svg" x="0" y="0" viewBox="0 0 100 100" xml:space="preserve"><style>.st0{fill:#a542f0}</style><path class="st0" d="M8.5 38.7c-.8.5-1.3 1.3-1.3 2.3 0 1 .5 1.8 1.3 2.3 6.7 4.2 18.7 14.3 24.9 36.3.3 1.3 1.3 2.1 2.6 2.1s2.3-.8 2.6-2.1c6-22.1 18.2-32.2 24.9-36.3.8-.5 1.3-1.3 1.3-2.3 0-1-.5-1.8-1.3-2.3-6.7-4.2-18.7-14.3-24.9-36.3C38.3 1 37.3.2 36 .2s-2.4.8-2.6 2.1C27.1 24.4 15.2 34.8 8.5 38.7zM76.1 98.7c.3.8 1.1 1.1 1.6 1.1.8 0 1.3-.5 1.6-1.1 2.1-5.6 5-10.6 8-14.6 1.6-2.1 3.5-4 5-5.8.3-.3.5-.8.5-1.3s-.3-1.1-.5-1.3c-1.9-1.6-3.5-3.7-5-5.8-3.2-4-5.8-9-8-14.6-.3-.8-1.1-1.1-1.6-1.1s-1.3.5-1.6 1.1C73.7 61 71.1 66 67.9 70c-1.6 1.9-3.2 3.7-4.8 5.3-.3.3-.5.8-.5 1.3s.3 1.1.5 1.3c1.9 1.6 3.5 3.5 5 5.8 3.2 4.6 5.9 9.4 8 15z"/></svg>