<svg class="icon icon_d20" xmlns="http://www.w3.org/2000/svg" viewBox="0 0 260.29 289.14"><path d="M240.18,75.31,110.86,149.64V290.31l2.71,1.57-.59,1h2.36l123.9,71.55,131.91-74V151.86M250.9,292.9l71.43-.57-71.43,39Zm18.31-122.32H211.9l28.66-49.63Zm56.15,97.25h-72l36-62.35Zm-86.59-21-30.66-53.1h61.32ZM224.39,268.2H155.54L190,208.58Zm82.15-79.64L348,174.44v86Zm26.27-33.4-38.06,13L289.47,159l-.11.19-28.2-48.85ZM185,168.14l-35.81-13.85,67.9-39Zm-51,5.08,39.31,15.21L134,256.5ZM227.76,292.9v38.18L161.63,292.9Z" transform="translate(-110.86 -75.31)"/></svg>