<svg version="1.1" id="Layer_1" xmlns="http://www.w3.org/2000/svg" xmlns:xlink="http://www.w3.org/1999/xlink" x="0" y="0" viewBox="0 0 1048 70" xml:space="preserve" enable-background="new 0 0 1048 70"><style type="text/css">.st0{fill:#5dd6c7}</style><path class="st0" d="M2.5,69.8c19.1-4.3,39.1-3,58.6-2.3c20.6,0.7,41.2,1.6,61.7,2c41.7,0.7,83.4,0.1,125.1-1.9	c20.3-1,40.7-3.2,61-1.6c9.8,0.7,19.5,2.2,29.4,2.1c9.6-0.1,19.2-1.5,28.7-2.8c10.2-1.4,20.4-2.6,30.7-2.1s20.5,2.4,30.7,3.9	c18.4,2.8,37,3.1,55.5,2.6c19.8-0.6,39.5-2,59.2-2.3c9.9-0.1,19.8,0,29.7,0.8c9.4,0.7,18.7,1.6,28.2,1.9c13.8,0.4,27.7-0.3,41.4-0.5	c18.6-0.2,37.1,0.6,55.7,0.3c6.6-0.1,13-0.7,19.6-1.1c10-0.6,20-0.6,30-0.2c10.2,0.5,20.2,1,30.4,0.6c9.9-0.4,19.5,0.5,29.4,0.5	c10.2,0,20.3-1,30.4-2c19.6-1.8,39.3-0.7,59-0.3c20.2,0.5,40.2,1.9,60.3,2.5c20,0.6,40.4-2.2,60.5-2c9.5,0.1,18.9,1.2,28.3,0.2	c2.4-0.2,2.4-4,0-3.8c-19.2,1.9-39.2-1.6-58.4,0.4c-20.7,2.2-40.7,1.8-61.4,0.2c-19.9-1.5-39.9-1.7-59.8-1.6	c-20,0-39.9,2.6-59.9,2.5c-10.2,0-20.1-0.7-30.3-0.4c-9.9,0.3-19.7-0.3-29.5-0.7c-14.2-0.6-28.1,0.8-42.2,1.2	c-15.9,0.5-31.8-0.6-47.7-0.4c-16.1,0.2-32.3,0.3-48.4,0.6c-12.9,0.2-25.5-1.2-38.4-2c-19.6-1.3-39.3-0.4-58.9,0.5	s-39.2,1.9-58.8,0.9c-19.3-1-38.2-6-57.5-6.4c-20-0.4-39.5,5.4-59.5,5.1c-9.8-0.2-19.5-1.7-29.3-2.3c-10.2-0.6-20.4-0.2-30.7,0.4	c-41.8,2.3-83.6,3.8-125.6,3.7c-21-0.1-42.1-0.5-63.1-1.3c-19.7-0.7-39.5-2-59.3-0.8c-8.7,0.5-17.5,0.5-26,2.4	C-0.8,66.7,0.2,70.3,2.5,69.8L2.5,69.8z"/></svg>