<svg id="Layer_1" xmlns="http://www.w3.org/2000/svg" viewBox="0 0 1048 70"><style>.st0{fill:#5dd6c7}</style><path class="st0" d="M2.5 69.8c19.1-4.3 39.1-3 58.6-2.3 20.6.7 41.2 1.6 61.7 2 41.7.7 83.4.1 125.1-1.9 20.3-1 40.7-3.2 61-1.6 9.8.7 19.5 2.2 29.4 2.1 9.6-.1 19.2-1.5 28.7-2.8 10.2-1.4 20.4-2.6 30.7-2.1s20.5 2.4 30.7 3.9c18.4 2.8 37 3.1 55.5 2.6 19.8-.6 39.5-2 59.2-2.3 9.9-.1 19.8 0 29.7.8 9.4.7 18.7 1.6 28.2 1.9 13.8.4 27.7-.3 41.4-.5 18.6-.2 37.1.6 55.7.3 6.6-.1 13-.7 19.6-1.1 10-.6 20-.6 30-.2 10.2.5 20.2 1 30.4.6 9.9-.4 19.5.5 29.4.5 10.2 0 20.3-1 30.4-2 19.6-1.8 39.3-.7 59-.3 20.2.5 40.2 1.9 60.3 2.5 20 .6 40.4-2.2 60.5-2 9.5.1 18.9 1.2 28.3.2 2.4-.2 2.4-4 0-3.8-19.2 1.9-39.2-1.6-58.4.4-20.7 2.2-40.7 1.8-61.4.2-19.9-1.5-39.9-1.7-59.8-1.6-20 0-39.9 2.6-59.9 2.5-10.2 0-20.1-.7-30.3-.4-9.9.3-19.7-.3-29.5-.7-14.2-.6-28.1.8-42.2 1.2-15.9.5-31.8-.6-47.7-.4-16.1.2-32.3.3-48.4.6-12.9.2-25.5-1.2-38.4-2-19.6-1.3-39.3-.4-58.9.5s-39.2 1.9-58.8.9c-19.3-1-38.2-6-57.5-6.4-20-.4-39.5 5.4-59.5 5.1-9.8-.2-19.5-1.7-29.3-2.3-10.2-.6-20.4-.2-30.7.4-41.8 2.3-83.6 3.8-125.6 3.7-21-.1-42.1-.5-63.1-1.3-19.7-.7-39.5-2-59.3-.8-8.7.5-17.5.5-26 2.4-2.1.4-1.1 4 1.2 3.5z"/></svg>