<?xml version="1.0" encoding="utf-8"?>
<!-- Generator: Adobe Illustrator 25.2.0, SVG Export Plug-In . SVG Version: 6.00 Build 0)  -->
<svg version="1.1" xmlns="http://www.w3.org/2000/svg" xmlns:xlink="http://www.w3.org/1999/xlink" x="0px" y="0px"
	 viewBox="0 0 1048 78" style="enable-background:new 0 0 1048 78;" xml:space="preserve">
<style type="text/css">
	.st0{display:none;}
	.st1{display:inline;fill:#5DD6C7;}
	.st2{fill:none;stroke:#A542F0;stroke-width:5;stroke-linecap:round;stroke-linejoin:round;stroke-miterlimit:10;}
</style>
<g id="Layer_1" class="st0">
	<path class="st1" d="M526.5,38.8c19.1-4.3,39.1-3,58.6-2.3c20.6,0.7,41.2,1.6,61.7,2c41.7,0.7,83.4,0.1,125.1-1.9
		c20.3-1,40.7-3.2,61-1.6c9.8,0.7,19.5,2.2,29.4,2.1c9.6-0.1,19.2-1.5,28.7-2.8c10.2-1.4,20.4-2.6,30.7-2.1s20.5,2.4,30.7,3.9
		c18.4,2.8,37,3.1,55.5,2.6c19.8-0.6,39.5-2,59.2-2.3c9.9-0.1,19.8,0,29.7,0.8c9.4,0.7,18.7,1.6,28.2,1.9
		c13.8,0.4,27.7-0.3,41.4-0.5c18.6-0.2,37.1,0.6,55.7,0.3c6.6-0.1,13-0.7,19.6-1.1c10-0.6,20-0.6,30-0.2c10.2,0.5,20.2,1,30.4,0.6
		c9.9-0.4,19.5,0.5,29.4,0.5c10.2,0,20.3-1,30.4-2c19.6-1.8,39.3-0.7,59-0.3c20.2,0.5,40.2,1.9,60.3,2.5c20,0.6,40.4-2.2,60.5-2
		c9.5,0.1,18.9,1.2,28.3,0.2c2.4-0.2,2.4-4,0-3.8c-19.2,1.9-39.2-1.6-58.4,0.4c-20.7,2.2-40.7,1.8-61.4,0.2
		c-19.9-1.5-39.9-1.7-59.8-1.6c-20,0-39.9,2.6-59.9,2.5c-10.2,0-20.1-0.7-30.3-0.4c-9.9,0.3-19.7-0.3-29.5-0.7
		c-14.2-0.6-28.1,0.8-42.2,1.2c-15.9,0.5-31.8-0.6-47.7-0.4c-16.1,0.2-32.3,0.3-48.4,0.6c-12.9,0.2-25.5-1.2-38.4-2
		c-19.6-1.3-39.3-0.4-58.9,0.5s-39.2,1.9-58.8,0.9c-19.3-1-38.2-6-57.5-6.4c-20-0.4-39.5,5.4-59.5,5.1c-9.8-0.2-19.5-1.7-29.3-2.3
		c-10.2-0.6-20.4-0.2-30.7,0.4c-41.8,2.3-83.6,3.8-125.6,3.7c-21-0.1-42.1-0.5-63.1-1.3c-19.7-0.7-39.5-2-59.3-0.8
		c-8.7,0.5-17.5,0.5-26,2.4C523.2,35.7,524.2,39.3,526.5,38.8L526.5,38.8z"/>
</g>
<g id="Layer_2">
</g>
<g id="Layer_3">
	<path class="st2" d="M1044.1,70.6c-0.9-1.9-19-0.7-31.1-0.1s-20.4,2.1-31.2,3.1c-19.3,1.7-46.8,1.6-66.5-0.4
		c-16.5-1.6-29.4-4.5-49-4.7c-29.2-0.3-43.8,5.4-72.8,5.7c-14.4,0.2-28.1-1.1-40.9-2.2c-33.7-2.8-76-6.8-109.6-4.5
		c-23.5,1.6-38,4-59.8,6c-7.8,0.7-16.9,1.3-26.5,1.1c-7-0.1-13.7-0.5-20.2-1c-30.5-2.1-61.2-3.3-94.1-4.3s-68.9,0.5-93.8,3.4
		c-14.7,1.7-31.4,2.3-49.3,1c-9.8-0.7-23.2-2.3-30.6-3.5c-15.2-2.3-32.1-1.4-52.5-0.5s-38.8,2.6-59.9,3.2c-5.4,0.2-11.2,0.2-16.7,0
		c-9.4-0.4-16.3-1.5-23.9-2.4c-32.9-3.9-86.3-3.4-111.5,1.1"/>
</g>
</svg>
