<svg viewBox="0 0 144.17 144.15" xmlns="http://www.w3.org/2000/svg"><style>.dark-mode {
  opacity: 0;
}

.light-mode {
  opacity: 1;
}

@media (prefers-color-scheme: dark) {
  .dark-mode {
    opacity: 1;
  }

  .light-mode {
    opacity: 0;
  }
}
</style><path class="dark-mode" d="m98.81 14.65c-8.15-3.23-16.96-4.47-25.72-4.1-12.75.54-31.77 4.12-43.84 19.24l-19.71 44.13s11.31 26.71 11.33 55.83c0 0 4.2.9 10.72 1.83v-8.98c0-1.69 1.37-3.07 3.07-3.07s3.07 1.37 3.07 3.07v9.78c2.18.25 4.51.49 6.94.69-.02-.15-.09-.29-.09-.45v-10.01c0-1.69 1.37-3.07 3.07-3.07s3.07 1.37 3.07 3.07v10.01c0 .3-.09.57-.17.84 2.36.12 4.78.2 7.23.22-.12-.33-.21-.68-.21-1.06v-10.01c0-1.69 1.37-3.07 3.07-3.07s3.07 1.37 3.07 3.07v10.01c0 .35-.09.68-.2.99 2.4-.08 4.79-.23 7.15-.46-.03-.18-.11-.34-.11-.53v-10.01c0-1.69 1.37-3.07 3.07-3.07s3.07 1.37 3.07 3.07v9.78c3.63-.59 7.13-1.41 10.36-2.52 0 0 1.83-23.37 22.34-12.47 0 0 13.19-11.14 23.07-22.02 0 0 15.09-61.38-33.62-80.71zm-67.65 88.7c-4.27 0-6.22-7.71-6.22-14.87 0-3.57.54-7.27 1.64-10.02-1.32.25-2.78.81-4.05 1.46l-.11.06c-.75.39-1.67.09-2.06-.66-.32-.63-.17-1.38.33-1.83 1.59-1.45 3.21-2.67 5.4-3.58 1.08-.44 2.38-.63 3.97-.61 3.11.03 4.96 3.38 5.05 3.59 1.42 2.36 2.26 6.12 2.26 10.91 0 6.26-1.65 15.56-6.22 15.56zm28.25 2.22c-.8 2.81-2.43 3.27-3.42 3.27-.16 0-.31-.01-.43-.03-1.88-.26-3.44-2.5-4.6-5.08-1.13 2.56-2.64 4.78-4.46 5-.84.09-2.87-.01-3.7-3.31-1.62-6.41 8.12-15.89 8.12-15.89s10.23 9.9 8.49 16.03zm17.32.11c-4.85 0-8.51-7.33-8.51-17.06 0-5.22 1.08-9.71 2.81-12.79-1.72.44-3.57 1.46-5.07 2.64l-.1.08c-.66.52-1.62.41-2.14-.26-.46-.58-.42-1.39.04-1.93 1-1.18 2.01-2.13 3.22-3.04 1.2-.89 2.53-1.71 4.14-2.2 1.6-.5 3.51-.62 5.36-.1 2.04.57 3.98 2.14 4.61 2.86 0 0 .01.01.02.02 0 0 0 .01.01.02 2.5 2.9 4.14 8.25 4.14 14.7 0 9.73-3.66 17.06-8.51 17.06zm29.41-8.69c-.67.35-1.26.48-1.75.48-.67 0-1.16-.23-1.46-.43-3.03-2.01-1.32-5.21.49-8.59 2.2-4.13 5.22-9.78 4.77-17.97-.73-13.15-6.44-24.65-6.49-24.76-.34-.67-.14-1.49.47-1.93.61-.45 1.44-.38 1.98.15.49.48 11.98 12.06 11.64 30.38-.22 11.47-5.84 20.69-9.65 22.68z" fill="#a542f0"></path><g fill="#a542f0" class="light-mode"><path d="m98.84 14.66c-7.86-3.12-16.52-4.51-25.69-4.11-13.4.56-31.9 4.4-43.95 19.5l-19.66 43.68.72 1.71c.1.24 10.18 24.42 10.2 50.28v3.46s3.38.72 3.38.72c1.05.23 17.86 3.76 36.17 3.76 9.48 0 19.36-.95 27.66-3.79l2.64-.92.24-2.78c.17-1.94 1.4-7.9 4.78-9.74 2.77-1.51 6.82.02 9.73 1.57l2.56 1.36 2.21-1.87c.51-.43 12.59-10.66 21.87-20.89l.73-.8.26-1.05c.15-.61 14.37-60.96-33.86-80.1zm25.77 77.03c-6.54 7.08-14.5 14.22-18.2 17.46-5.82-2.48-10.93-2.56-15.2-.21-5.77 3.17-7.94 9.72-8.74 13.6-1.86.52-3.82.93-5.82 1.28v-4.74c0-1.58-1.28-2.85-2.85-2.85s-2.85 1.28-2.85 2.85v5.52c-2.1.21-4.23.34-6.37.42v-5.94c0-1.58-1.28-2.85-2.85-2.85s-2.85 1.28-2.85 2.85v6.01c-2.15-.02-4.29-.08-6.37-.19v-5.81c0-1.58-1.28-2.85-2.85-2.85s-2.85 1.28-2.85 2.85v5.42c-2.24-.19-4.37-.41-6.37-.64v-4.77c0-1.58-1.28-2.85-2.85-2.85s-2.85 1.28-2.85 2.85v4.02c-2.28-.33-4.26-.66-5.75-.92-.72-22.4-7.81-42.36-10.12-48.31l17.37-38.89c10.06-12.24 25.79-15.39 37.29-15.88 7.98-.34 15.44.85 22.17 3.52 17.17 6.81 27.25 20.49 29.94 40.63 1.76 13.13-.31 24.98-1.02 28.45z"></path><path d="m52.16 88.31s-9.06 8.83-7.56 14.79c.77 3.06 2.67 3.16 3.45 3.08 1.69-.21 3.1-2.27 4.15-4.65 1.08 2.4 2.53 4.48 4.28 4.72.11.02.25.03.4.03.92 0 2.44-.43 3.18-3.04 1.62-5.71-7.9-14.91-7.9-14.91z"></path><path d="m79.84 73.77s-.01-.01-.02-.02c-.58-.67-2.19-2.1-4.29-2.66-1.72-.46-3.5-.37-4.98.1-1.5.46-2.74 1.22-3.86 2.05-1.12.85-2.06 1.74-2.99 2.83-.43.5-.46 1.25-.03 1.79.48.62 1.38.72 1.99.24 0 0 3.21-2.12 4.81-2.53-1.61 2.86-2.61 7.04-2.61 11.9 0 9.05 3.4 15.87 7.92 15.87s7.92-6.82 7.92-15.87c0-6.01-1.52-10.98-3.85-13.68 0 0 0-.01-.01-.02z"></path><path d="m38.53 75.98s-1.59-2.78-4.42-2.78c-1.49 0-2.69.16-3.7.57-2.04.85-3.54 1.99-5.02 3.33-.46.42-.61 1.12-.31 1.7.36.7 1.22.97 1.92.61l.1-.05c1.18-.61 2.54-1.12 3.77-1.36-1.02 2.56-1.52 5.99-1.52 9.32 0 6.66 1.81 13.84 5.78 13.84 4.24 0 5.78-8.66 5.78-14.48 0-7.21-2.25-10.54-2.38-10.71z"></path><path d="m100.38 45.74c-.57.41-.75 1.17-.44 1.79.05.11 5.36 10.8 6.04 23.03.42 7.62-2.39 12.88-4.44 16.72-1.68 3.15-3.27 6.13-.46 8 .28.18.74.4 1.36.4.46 0 1-.11 1.62-.44 3.54-1.86 8.77-10.44 8.98-21.11.33-17.04-10.37-27.81-10.83-28.26-.5-.49-1.28-.56-1.84-.14z"></path></g></svg>