<svg class="icon icon_eyg-shield" data-name="Layer 1" xmlns="http://www.w3.org/2000/svg" viewBox="0 0 247.56 294.32"><defs></defs><path d="M359.74,144.52C338.91,133.63,242.31,97.6,242.26,97.58h0S147,136.75,124.78,144.52c-7.11,2.49-21.36,159,53.4,208.1,55.49,36.45,64,39.28,64.08,39.29h0s8.59-2.84,64.08-39.29C381.1,303.5,368.33,149,359.74,144.52ZM290.6,191.59H222.19v29.24H280.3v31.45H222.19V272.5a16.8,16.8,0,0,0,16.73,16.73H290.6v34.94H238.92a51.72,51.72,0,0,1-51.67-51.67V156.65H290.6Z" transform="translate(-118.81 -97.58)"/></svg>