<svg class="icon icon_illo" xmlns="http://www.w3.org/2000/svg" viewBox="0 0 170.85 170.6"><path d="M247.89,183.55l6-2.45q30-12.41,59.9-24.85a5.22,5.22,0,0,0,1.64-1.1q41.88-41.84,83.73-83.71l.38-.41,8.29-8.19,0,0c6.3-6.62,12.13-17.62,10.68-26.68-1.79-11.15-8.25-18.83-19-22.28a21.08,21.08,0,0,0-6.46-1c-8.23,0-16.83,4.29-23.24,9.7h0l-.13.13c-.35.3-.7.6-1,.91l.06.06-8.12,8-.61.58-1.55,1.55-1.78,1.76h0Q316.48,75.8,276.33,116a6.14,6.14,0,0,0-1.26,2Q261.75,150,248.47,182.09C248.32,182.45,248.18,182.82,247.89,183.55ZM406.75,49.07,382.55,24.86A23.74,23.74,0,0,1,393,21.94a12.16,12.16,0,0,1,3.71.55A18.7,18.7,0,0,1,405.52,28a19.31,19.31,0,0,1,4.11,9.62C410.11,40.63,409,44.9,406.75,49.07Zm-5.31,7.41-7.94,7.84L367.11,37.93l7.94-7.84ZM268.88,154.75c.8-2.1,13.53-34.08,14.33-33.76a9.26,9.26,0,0,1,7.54,3c5.54,5,4.22,11.2,4,12.8.33-.09,7-2,11.35,1.52,3,2,4.33,6.33,4.38,10.11.18.69-21.09,10.25-33.38,15.3C273.46,159.42,272.38,158.75,268.88,154.75Z" transform="translate(-247.89 -12.94)"/></svg>