<svg class="icon icon_ign" data-name="Layer 1" xmlns="http://www.w3.org/2000/svg" viewBox="0 0 276.68 276.65"><g id="LYYqnU"><path d="M306.59,203.12a58.92,58.92,0,0,1,7.35.66c1.23.26,2.49.1,3.62.45a11.83,11.83,0,0,0,3.64.41c.92,0,1.67.67,2.67.52a5,5,0,0,1,2.45.35,15.76,15.76,0,0,0,3.6.47c2.43.25,4.83.74,7.21,1.15,2.11.36,4.25.79,6.36,1.23,2.42.5,4.85,1,7.25,1.56,3.39.79,6.77,1.63,10.12,2.61,3.19.93,6.33,2,9.46,3.08,2.57.9,5.1,1.9,7.61,3.05v45.4a110.19,110.19,0,0,1-15.32,5.76c-2,.62-4,1.15-6,1.68-2.94.78-6,1.25-8.84,2.24-.92.32-1.91.22-2.89.48a32.72,32.72,0,0,1-4.19.86c-1.43.19-2.84.5-4.24.78a16.1,16.1,0,0,0-2.89.45c-.92.38-1.87.15-2.67.46-1.14.44-2.34.15-3.38.49s-2.14.2-3.15.46c-1.21.31-2.5.17-3.6.52-1.25.4-2.5.08-3.63.44-1.3.42-2.67.1-3.85.48-2.41.78-4.8.16-6.92.42-1.32-1.42-2.5-2.65-3.64-3.92-1-1.09-1.92-2.22-2.87-3.34s-2.2-1.77-2.71-3.17c-.08-.2-.33-.34-.49-.51-2.25-2.41-4.57-4.75-6.73-7.24-2.71-3.12-5.48-6.17-8.23-9.25-1.4-1.57-3-3-4.23-4.67s-2.58-2.92-3.9-4.34a12.32,12.32,0,0,1-1.14-1.75c1.5-1.7,3-3.4,4.47-5.06,1.89-2.09,4-4,5.68-6.26,1.15-1.5,2.52-2.76,3.76-4.15.87-1,1.68-2,2.54-3s2-1.75,2.55-3c.22-.47.77-.79,1.15-1.2,2.08-2.24,4.28-4.38,6.21-6.74C301.24,209,304,206.2,306.59,203.12Z" transform="translate(-101.26 -103.07)"/><path d="M262,103.07c.66,1.45,1.39,2.83,1.93,4.27q2.16,5.8,3.94,11.73c.63,2.13,1.3,4.24,1.81,6.41s.91,4.38,1.6,6.5c.35,1.08.44,2.19.72,3.27a76.91,76.91,0,0,1,1.54,8.21c.28,1.94.68,3.86,1,5.8.18,1.05,0,2.29.47,3.11.6,1,0,2.06.42,2.94.52,1.2.11,2.53.52,3.6s.1,2.34.44,3.4c.43,1.29.22,2.61.48,3.86a31.3,31.3,0,0,0,.51,3.6c.55,1.57.19,3.08.42,4.61-2.37,2.2-4.62,4.53-7.13,6.51-1.42,1.12-2.63,2.42-4,3.59-1,.86-2,1.7-3,2.53s-1.64,2.11-3,2.55c-.2.07-.34.33-.51.49-2.41,2.25-4.75,4.57-7.24,6.73-3.12,2.71-6.25,5.39-9.22,8.27-1.27,1.23-2.71,2.28-4.19,3.51a14,14,0,0,1-1.77-1.2c-1.38-1.26-2.71-2.55-4.16-3.74-2.48-2-4.73-4.35-7.1-6.53-1.08-1-2.23-1.91-3.34-2.88s-1.82-2.14-3.17-2.7c-.14-.06-.22-.22-.34-.33-2.35-2.19-4.69-4.4-7.06-6.57-1-.88-2-1.67-3-2.54a19.53,19.53,0,0,0-3-2.56,13.38,13.38,0,0,1-2.05-2c-1-.89-1.94-1.75-3.15-2.83,0-1.59,0-3.48,0-5.37,0-1,.65-1.84.5-2.91a8.22,8.22,0,0,1,.37-2.92,49.44,49.44,0,0,0,.56-5.75c.08-.82.32-1.62.46-2.43a8.12,8.12,0,0,1,.38-2.47,9.8,9.8,0,0,0,.48-3.34c.17-2.45.8-4.81,1.13-7.22.12-.87,0-2,.47-2.62.69-.94,0-2,.68-2.85s-.31-1.91.67-2.58c-.14-2.7,1.29-5.09,1.5-7.75a19.88,19.88,0,0,1,1.07-3.83c1-3.39,1.86-6.83,3.14-10.14.4-1,.64-2.12,1.05-3.14s.93-1.84,1.32-2.79c.48-1.15.89-2.33,1.33-3.5Z" transform="translate(-101.26 -103.07)"/><path d="M201.35,308.48c2.44-2.27,4.63-4.54,7.07-6.48,1.41-1.13,2.62-2.43,4-3.58,3.16-2.66,6.18-5.47,9.26-8.22,1.51-1.35,2.95-2.78,4.49-4.09,3.21-2.72,6.38-5.48,9.39-8.43,1.16-1.13,2.5-2.08,3.81-3.16,1.75.87,3.05,2.5,4.55,3.9,1,.95,2.12,1.8,3.17,2.71s1.72,2,3,2.54c.2.08.34.33.51.49,2.35,2.19,4.65,4.45,7.07,6.56,3.17,2.77,6.29,5.59,9.42,8.39,1.45,1.3,2.79,2.73,4.33,3.9a62.27,62.27,0,0,1,4.85,4.4,9,9,0,0,0,1.53.91c-.28,1.68.17,3.37-.44,5.18-.55,1.63-.38,3.5-.57,5.26-.11,1-.33,1.93-.46,2.9a8.58,8.58,0,0,1-.41,2.7c-.44,1-.06,2.2-.47,3.37a22.44,22.44,0,0,0-.57,4.54c-.1.74-.34,1.45-.46,2.19a8.52,8.52,0,0,1-.4,2.22c-.39.92-.1,2.06-.5,3.13s-.07,2.56-.61,3.55.09,2.51-.87,3.46c.21,2-1.17,3.78-1,5.81-1,2.09-1.1,4.44-1.85,6.62s-1.25,4.57-2,6.82a86.61,86.61,0,0,1-3.59,10,20.34,20.34,0,0,1-1.73,3.66H216.41c-.19-.45-.41-1-.64-1.52a91.43,91.43,0,0,1-3.4-9.09c-.9-2.81-1.81-5.61-2.66-8.44-.45-1.49-.74-3-1.17-4.53-.72-2.5-.94-5.11-1.82-7.59-.32-.88-.21-1.92-.51-2.89-.37-1.22,0-2.76-.64-3.78-.7-1.17.26-2.56-.84-3.49.34-1.42-.49-2.7-.5-4.1a15.12,15.12,0,0,0-.45-2.43c-.15-.81.37-1.75-.47-2.44-.08-.06,0-.3,0-.46a11.59,11.59,0,0,0-.42-3.4c-.3-1,.12-2.15-.53-3.13-.07-.11,0-.31,0-.47a38.63,38.63,0,0,0-.54-6.23C201.21,313.34,201.57,310.94,201.35,308.48Z" transform="translate(-101.26 -103.07)"/><path d="M172.29,203.22c1.2,1.3,2.22,2.36,3.19,3.45s2,2.33,3,3.51,2.42,2,3,3.51c.06.14.22.22.33.34,2.19,2.35,4.4,4.69,6.57,7.06.88,1,1.68,2,2.54,3s2,1.73,2.54,3c.08.2.33.34.49.51,2.19,2.35,4.5,4.61,6.54,7.09,1.5,1.82,3.14,3.48,4.75,5.18a12.45,12.45,0,0,1,1.19,1.82c-1.77,1.94-3.64,4-5.48,6-1,1.09-1.92,2.22-2.87,3.34s-2.19,1.78-2.71,3.17c-.08.2-.33.34-.49.51-2.25,2.41-4.62,4.72-6.7,7.26-1.4,1.7-3,3.18-4.4,4.85-2.6,3.11-5.27,6.14-8.1,9-1.13,1.16-2.08,2.5-3,3.68h-4.22a7.83,7.83,0,0,1-3.16-.43c-.88-.37-2,.37-2.9-.51-.08-.08-.31,0-.47,0a40.91,40.91,0,0,1-6-.53c-2.5-.58-5.08-.53-7.55-1.32-1.35-.44-2.92-.2-4.31-.57-2.1-.55-4.29-.57-6.38-1.26a27.6,27.6,0,0,0-3.09-.6c-2.63-.53-5.26-1.06-7.84-1.8-2.07-.6-4.2-1-6.27-1.57-3.12-.9-6.28-1.66-9.32-2.84-1.58-.61-3.22-1.06-4.78-1.7s-3.07-1.42-4.61-2.12a2,2,0,0,0-.55-.06V218.67A66.7,66.7,0,0,1,113.19,214c3.75-1.13,7.51-2.3,11.34-3.2,2.36-.55,4.77-1.1,7.13-1.7,1.93-.49,4-.76,6-1.16a62.25,62.25,0,0,0,6.36-1.29,26.83,26.83,0,0,1,4.55-.54c.82-.1,1.62-.32,2.43-.46s1.75.37,2.44-.47c.06-.08.31,0,.46,0,1.84-.16,3.71-.18,5.52-.51,2.64-.47,5.36-.43,7.94-1A39.5,39.5,0,0,1,172.29,203.22Z" transform="translate(-101.26 -103.07)"/><path d="M282.88,355c.23-.86.44-1.56.59-2.27.19-.88.29-1.78.49-2.66a16.22,16.22,0,0,1,.82-2.76c.37-.85.08-1.74.49-2.66a13.72,13.72,0,0,0,.55-3.33c.32-2.25,1.05-4.45,1-6.75.71-1,.17-2.33.55-3.35s.13-2.18.46-3.15c.43-1.22.08-2.54.5-3.61.5-1.25,0-2.53.46-3.62a13.2,13.2,0,0,0,.45-3.33c9-5.55,20.35-16.4,25.74-25.65,1.52-1,3.13-.54,4.61-.83,2.32-.46,4.69-.53,7-1a21.41,21.41,0,0,1,3.87-.41c.91-1.16,2.51.2,3.42-1a11,11,0,0,0,3.62-.46c1.19-.24,2.58,0,3.57-.58s2.22-.13,3.29-.76c.74-.44,1.89-.32,2.86-.52,1.25-.25,2.47-.54,3.7-.89a12.13,12.13,0,0,1,2.22-.18c-1.56,4.24-3.59,8.11-5.48,12a123.1,123.1,0,0,1-7.88,13.42c-1.11,1.72-2.51,3.26-3.78,4.88-1.69,2.16-3.37,4.33-5.06,6.48a12.28,12.28,0,0,1-1,1c-2.81,2.81-5.56,5.69-8.45,8.41a116.32,116.32,0,0,1-9.6,7.83c-2.65,2-5.53,3.66-8.16,5.68-.9.69-2.16.81-2.82,1.84-3.6,1.85-7.16,3.81-10.83,5.52-1.92.9-4,1.58-5.86,2.55C283.91,355.09,283.47,355,282.88,355Z" transform="translate(-101.26 -103.07)"/><path d="M315.53,191.76a92.32,92.32,0,0,0-26.18-26.19,357.12,357.12,0,0,0-6.47-37.84c1.31.46,2.37.72,3.34,1.18,3.52,1.67,7,3.34,10.52,5.12a101.57,101.57,0,0,1,12.74,7.75c2.6,1.86,5.15,3.84,7.6,5.94,3.75,3.21,7.43,6.46,10.85,10,.91.94,1.69,2,2.54,3s1.62,1.88,2.43,2.78c1.55,1.72,2.89,3.59,4.3,5.41a88.79,88.79,0,0,1,5.48,8c1.4,2.28,2.79,4.58,4.06,6.92a36.84,36.84,0,0,1,3.58,7.57,21.08,21.08,0,0,0,1.2,2.36c.49,1.14.88,2.33,1.42,3.78-1.65-.19-3.15,0-4.26-.59s-2.36.11-3.23-.86c-2.23,0-4.27-1.13-6.52-1-.89-.65-2-.22-2.88-.54s-2-.13-2.9-.48c-1.07-.45-2.29,0-3.12-.5-1-.6-2.06,0-2.94-.42-1.28-.55-2.64-.16-3.85-.51s-2.48-.15-3.62-.47A15.74,15.74,0,0,0,315.53,191.76Z" transform="translate(-101.26 -103.07)"/><path d="M126,285.22c1.49.27,2.89.45,4.25.78a43.72,43.72,0,0,0,6.17,1.23c.74.07,1.45.33,2.19.46a11.57,11.57,0,0,0,3.85.48c.9,1.16,2.3.19,3.48.85s2.85.32,4.27.61c1.7.34,3.48.16,5.11.89a1.49,1.49,0,0,0,.46,0c1.84.16,3.7.23,5.52.51,1.19.18,2.65.13,3,1.79,1.88,2.21,3.51,4.61,5.34,6.87a120.89,120.89,0,0,0,8.85,9.17,39.86,39.86,0,0,0,6.95,5.62c1.34.84,2.53,1.93,3.92,3,0,1.27.75,2.58.61,4.09s.66,2.82.48,4.33a10.87,10.87,0,0,0,.42,2.42,12.69,12.69,0,0,0,.41,2.21,20.29,20.29,0,0,1,.47,3.6c.27,2.42.79,4.81,1.14,7.21a27.48,27.48,0,0,0,1.23,5.66,20.11,20.11,0,0,1,.59,3.34c.27,1.46.58,2.92.91,4.55a11.2,11.2,0,0,1-2.05-.45c-1.35-.57-2.64-1.31-4-1.87s-2.62-1.06-3.82-1.69c-2.62-1.37-5.26-2.72-7.78-4.27-2.16-1.33-4.31-2.66-6.44-4-1.08-.7-2.05-1.53-3.11-2.24s-2.14-1.4-3.14-2.2c-2.42-1.93-4.7-4-7.08-6a74.19,74.19,0,0,1-7.61-7.37c-1.64-1.81-3.32-3.63-4.85-5.57-1.38-1.74-2.85-3.42-4.13-5.24q-2.38-3.4-4.73-6.84c-2.23-3.28-3.87-6.87-6-10.18-1.11-1.7-1.64-3.76-2.49-5.63-.76-1.68-1.6-3.31-2.36-5A3.65,3.65,0,0,1,126,285.22Z" transform="translate(-101.26 -103.07)"/><path d="M195.61,128.34c-.34,1.54-.65,2.84-.9,4.15-.2,1-.73,2-.49,3.14-1.08.73.13,2.21-1,2.94a25.74,25.74,0,0,1-.39,3.15c-.35,2.41-1.12,4.75-1.07,7.22a9.6,9.6,0,0,1-.45,1.95c-.13.66.29,1.43-.45,2-.12.09,0,.45,0,.69a36,36,0,0,1-.54,5.51,24.6,24.6,0,0,0-.43,4.11,4.52,4.52,0,0,1-2.06,3.65,58.46,58.46,0,0,0-5.5,4,71.39,71.39,0,0,0-8.82,8,92.25,92.25,0,0,0-9.85,12.37,1.72,1.72,0,0,0-.13.44c-2.22.19-4.45.29-6.66.61s-4.64.76-7,1a22.94,22.94,0,0,0-3.14.44c-1,.25-2,.22-2.9.48-2.09.61-4.34.4-6.34,1.38-1.27-.31-2.42.28-3.61.5a41.78,41.78,0,0,0-5.67,1.25,9.33,9.33,0,0,1-2.33.16c.46-1.24.77-2.3,1.23-3.29,1.71-3.67,3.38-7.35,5.24-10.94,1.3-2.5,2.88-4.85,4.35-7.26,2-3.28,4.41-6.27,6.6-9.42,1-1.39,2.29-2.53,3.33-3.88,3.31-4.26,7.37-7.8,11.18-11.56a90,90,0,0,1,9.41-7.69c2.24-1.68,4.57-3.23,6.88-4.78a88.7,88.7,0,0,1,7.88-4.57c2.79-1.49,5.66-2.84,8.5-4.23a34.64,34.64,0,0,1,3.43-1.5A5.4,5.4,0,0,1,195.61,128.34Z" transform="translate(-101.26 -103.07)"/></g></svg>