<svg width="228" height="16" xmlns="http://www.w3.org/2000/svg"><path fill="#6B6673" d="M206.085 9.82l.039.75-.039-.75zm21.473.29a.75.75 0 00.011-1.061l-4.722-4.824a.75.75 0 10-1.072 1.05l4.198 4.287-4.288 4.197a.75.75 0 001.049 1.072l4.824-4.722zM141.06 7.88l.066-.747-.066.747zm65.064 2.689c3.745-.194 8.966-.256 13.261-.27a659.985 659.985 0 017.489.022l.113.001a4.408 4.408 0 01.036 0h.002l.008-.75.008-.75h-.039l-.114-.001a358.728 358.728 0 00-2.065-.015 661.331 661.331 0 00-5.443-.006c-4.297.013-9.55.075-13.334.27l.078 1.499zm-64.998-3.436C110.567 4.416 81.196 4.89 56.563 5.84 31.886 6.792 12.059 8.216.45 7.417L.347 8.914c11.716.806 31.708-.627 56.274-1.575 24.61-.95 53.907-1.42 84.372 1.29l.133-1.495zm64.92 1.938c-7.496.388-32.814.919-64.92-1.938l-.133 1.494c32.182 2.863 57.57 2.334 65.131 1.942l-.078-1.498z"/></svg>