<svg enable-background="new 0 0 1048 78" viewBox="0 0 1048 78" xmlns="http://www.w3.org/2000/svg"><path d="m1044.1 70.6c-.9-1.9-19-.7-31.1-.1s-20.4 2.1-31.2 3.1c-19.3 1.7-46.8 1.6-66.5-.4-16.5-1.6-29.4-4.5-49-4.7-29.2-.3-43.8 5.4-72.8 5.7-14.4.2-28.1-1.1-40.9-2.2-33.7-2.8-76-6.8-109.6-4.5-23.5 1.6-38 4-59.8 6-7.8.7-16.9 1.3-26.5 1.1-7-.1-13.7-.5-20.2-1-30.5-2.1-61.2-3.3-94.1-4.3s-68.9.5-93.8 3.4c-14.7 1.7-31.4 2.3-49.3 1-9.8-.7-23.2-2.3-30.6-3.5-15.2-2.3-32.1-1.4-52.5-.5s-38.8 2.6-59.9 3.2c-5.4.2-11.2.2-16.7 0-9.4-.4-16.3-1.5-23.9-2.4-32.9-3.9-86.3-3.4-111.5 1.1" style="fill:none;stroke:#a542f0;stroke-width:5;stroke-linecap:round;stroke-linejoin:round;stroke-miterlimit:10"/></svg>